<svg id="visual" viewBox="0 0 960 540" width="960" height="540" xmlns="http://www.w3.org/2000/svg" xmlns:xlink="http://www.w3.org/1999/xlink" version="1.1"><g stroke-width="1" stroke-linejoin="bevel"><path d="M515.3 235L625 274L572.3 201Z" fill="#b66e29" stroke="#b66e29"></path><path d="M625 274L662 208L572.3 201Z" fill="#a16023" stroke="#a16023"></path><path d="M542.3 399L614 391L625 274Z" fill="#ab6726" stroke="#ab6726"></path><path d="M625 274L722.7 258L662 208Z" fill="#a16023" stroke="#a16023"></path><path d="M428.7 212L429.7 275L515.3 235Z" fill="#d17f31" stroke="#d17f31"></path><path d="M515.3 235L542.3 399L625 274Z" fill="#c0742d" stroke="#c0742d"></path><path d="M429.7 275L542.3 399L515.3 235Z" fill="#c0742d" stroke="#c0742d"></path><path d="M545.3 100L428.7 212L515.3 235Z" fill="#b16a28" stroke="#b16a28"></path><path d="M719.7 374L722.7 258L625 274Z" fill="#a66325" stroke="#a66325"></path><path d="M651 85L545.3 100L572.3 201Z" fill="#b66e29" stroke="#b66e29"></path><path d="M572.3 201L545.3 100L515.3 235Z" fill="#c0742d" stroke="#c0742d"></path><path d="M651 85L572.3 201L662 208Z" fill="#bb712b" stroke="#bb712b"></path><path d="M429.7 275L426.7 373L542.3 399Z" fill="#cb7b30" stroke="#cb7b30"></path><path d="M400.7 418L426.7 373L308 331Z" fill="#c0742d" stroke="#c0742d"></path><path d="M722.7 258L742.7 200L662 208Z" fill="#cb7b30" stroke="#cb7b30"></path><path d="M614 391L719.7 374L625 274Z" fill="#a16023" stroke="#a16023"></path><path d="M722.7 258L825.3 276L742.7 200Z" fill="#ab6726" stroke="#ab6726"></path><path d="M742.7 200L651 85L662 208Z" fill="#a16023" stroke="#a16023"></path><path d="M459.7 0L422.7 111L545.3 100Z" fill="#d68233" stroke="#d68233"></path><path d="M545.3 100L422.7 111L428.7 212Z" fill="#d17f31" stroke="#d17f31"></path><path d="M330 284L426.7 373L429.7 275Z" fill="#c0742d" stroke="#c0742d"></path><path d="M542.3 399L565.3 477L614 391Z" fill="#c0742d" stroke="#c0742d"></path><path d="M614 391L622 481L719.7 374Z" fill="#b66e29" stroke="#b66e29"></path><path d="M501.3 540L565.3 477L542.3 399Z" fill="#c0742d" stroke="#c0742d"></path><path d="M565.3 477L622 481L614 391Z" fill="#c0742d" stroke="#c0742d"></path><path d="M330 284L429.7 275L428.7 212Z" fill="#ab6726" stroke="#ab6726"></path><path d="M426.7 373L400.7 418L542.3 399Z" fill="#cb7b30" stroke="#cb7b30"></path><path d="M297 206L330 284L428.7 212Z" fill="#b16a28" stroke="#b16a28"></path><path d="M622 481L765.7 418L719.7 374Z" fill="#c0742d" stroke="#c0742d"></path><path d="M719.7 374L825.3 276L722.7 258Z" fill="#c0742d" stroke="#c0742d"></path><path d="M854.3 355L825.3 276L719.7 374Z" fill="#c0742d" stroke="#c0742d"></path><path d="M778.7 0L614 0L651 85Z" fill="#a16023" stroke="#a16023"></path><path d="M614 0L527.3 0L545.3 100Z" fill="#d17f31" stroke="#d17f31"></path><path d="M779.7 85L651 85L742.7 200Z" fill="#d17f31" stroke="#d17f31"></path><path d="M651 85L614 0L545.3 100Z" fill="#cb7b30" stroke="#cb7b30"></path><path d="M330 284L308 331L426.7 373Z" fill="#b16a28" stroke="#b16a28"></path><path d="M825.3 276L823.3 166L742.7 200Z" fill="#ab6726" stroke="#ab6726"></path><path d="M823.3 166L779.7 85L742.7 200Z" fill="#bb712b" stroke="#bb712b"></path><path d="M310 65L297 206L422.7 111Z" fill="#c6782e" stroke="#c6782e"></path><path d="M422.7 111L297 206L428.7 212Z" fill="#d17f31" stroke="#d17f31"></path><path d="M330 284L205.3 290L308 331Z" fill="#cb7b30" stroke="#cb7b30"></path><path d="M527.3 0L459.7 0L545.3 100Z" fill="#d17f31" stroke="#d17f31"></path><path d="M444.7 540L501.3 540L400.7 418Z" fill="#b66e29" stroke="#b66e29"></path><path d="M400.7 418L501.3 540L542.3 399Z" fill="#c6782e" stroke="#c6782e"></path><path d="M565.3 477L674 540L622 481Z" fill="#b66e29" stroke="#b66e29"></path><path d="M622 481L712.7 540L765.7 418Z" fill="#d68233" stroke="#d68233"></path><path d="M501.3 540L674 540L565.3 477Z" fill="#c6782e" stroke="#c6782e"></path><path d="M855.3 425L854.3 355L765.7 418Z" fill="#b16a28" stroke="#b16a28"></path><path d="M765.7 418L854.3 355L719.7 374Z" fill="#a16023" stroke="#a16023"></path><path d="M825.3 276L960 213L823.3 166Z" fill="#a16023" stroke="#a16023"></path><path d="M355 540L444.7 540L400.7 418Z" fill="#b16a28" stroke="#b16a28"></path><path d="M674 540L712.7 540L622 481Z" fill="#b16a28" stroke="#b16a28"></path><path d="M855.3 0L813.3 59L960 77Z" fill="#a16023" stroke="#a16023"></path><path d="M823.3 166L813.3 59L779.7 85Z" fill="#b16a28" stroke="#b16a28"></path><path d="M779.7 85L778.7 0L651 85Z" fill="#b16a28" stroke="#b16a28"></path><path d="M325 0L310 65L422.7 111Z" fill="#c6782e" stroke="#c6782e"></path><path d="M308 331L323 476L400.7 418Z" fill="#b66e29" stroke="#b66e29"></path><path d="M837.3 540L855.3 425L765.7 418Z" fill="#bb712b" stroke="#bb712b"></path><path d="M813.3 59L778.7 0L779.7 85Z" fill="#c6782e" stroke="#c6782e"></path><path d="M323 476L355 540L400.7 418Z" fill="#cb7b30" stroke="#cb7b30"></path><path d="M459.7 0L325 0L422.7 111Z" fill="#ab6726" stroke="#ab6726"></path><path d="M297 206L205.3 290L330 284Z" fill="#b66e29" stroke="#b66e29"></path><path d="M308 331L206.3 391L323 476Z" fill="#a16023" stroke="#a16023"></path><path d="M323 476L181.3 540L355 540Z" fill="#a66325" stroke="#a66325"></path><path d="M204.3 161L205.3 290L297 206Z" fill="#cb7b30" stroke="#cb7b30"></path><path d="M236.3 102L297 206L310 65Z" fill="#c6782e" stroke="#c6782e"></path><path d="M231.3 0L236.3 102L310 65Z" fill="#cb7b30" stroke="#cb7b30"></path><path d="M236.3 102L204.3 161L297 206Z" fill="#bb712b" stroke="#bb712b"></path><path d="M205.3 290L206.3 391L308 331Z" fill="#c6782e" stroke="#c6782e"></path><path d="M960 77L813.3 59L823.3 166Z" fill="#b16a28" stroke="#b16a28"></path><path d="M813.3 59L855.3 0L778.7 0Z" fill="#c0742d" stroke="#c0742d"></path><path d="M960 278L825.3 276L854.3 355Z" fill="#cb7b30" stroke="#cb7b30"></path><path d="M712.7 540L837.3 540L765.7 418Z" fill="#d68233" stroke="#d68233"></path><path d="M960 386L854.3 355L855.3 425Z" fill="#d68233" stroke="#d68233"></path><path d="M960 386L960 278L854.3 355Z" fill="#a16023" stroke="#a16023"></path><path d="M960 278L960 213L825.3 276Z" fill="#d17f31" stroke="#d17f31"></path><path d="M960 414L960 386L855.3 425Z" fill="#bb712b" stroke="#bb712b"></path><path d="M960 540L960 414L855.3 425Z" fill="#a16023" stroke="#a16023"></path><path d="M325 0L231.3 0L310 65Z" fill="#b16a28" stroke="#b16a28"></path><path d="M117.7 111L130.7 192L204.3 161Z" fill="#d68233" stroke="#d68233"></path><path d="M960 213L960 77L823.3 166Z" fill="#d68233" stroke="#d68233"></path><path d="M117.7 111L204.3 161L236.3 102Z" fill="#b16a28" stroke="#b16a28"></path><path d="M204.3 161L130.7 192L205.3 290Z" fill="#a66325" stroke="#a66325"></path><path d="M205.3 290L78.7 351L206.3 391Z" fill="#ab6726" stroke="#ab6726"></path><path d="M130.7 192L123.7 258L205.3 290Z" fill="#d68233" stroke="#d68233"></path><path d="M91.7 480L175.3 481L206.3 391Z" fill="#ab6726" stroke="#ab6726"></path><path d="M206.3 391L175.3 481L323 476Z" fill="#d17f31" stroke="#d17f31"></path><path d="M960 77L960 0L855.3 0Z" fill="#b66e29" stroke="#b66e29"></path><path d="M0 309L78.7 351L123.7 258Z" fill="#a16023" stroke="#a16023"></path><path d="M144.7 0L117.7 111L236.3 102Z" fill="#a16023" stroke="#a16023"></path><path d="M123.7 540L181.3 540L175.3 481Z" fill="#c0742d" stroke="#c0742d"></path><path d="M175.3 481L181.3 540L323 476Z" fill="#d17f31" stroke="#d17f31"></path><path d="M837.3 540L960 540L855.3 425Z" fill="#a66325" stroke="#a66325"></path><path d="M231.3 0L144.7 0L236.3 102Z" fill="#d68233" stroke="#d68233"></path><path d="M123.7 258L78.7 351L205.3 290Z" fill="#b66e29" stroke="#b66e29"></path><path d="M0 309L123.7 258L0 177Z" fill="#d68233" stroke="#d68233"></path><path d="M78.7 351L91.7 480L206.3 391Z" fill="#ab6726" stroke="#ab6726"></path><path d="M91.7 480L123.7 540L175.3 481Z" fill="#d17f31" stroke="#d17f31"></path><path d="M78.7 351L0 377L91.7 480Z" fill="#a16023" stroke="#a16023"></path><path d="M91.7 480L0 540L123.7 540Z" fill="#a66325" stroke="#a66325"></path><path d="M0 177L123.7 258L130.7 192Z" fill="#cb7b30" stroke="#cb7b30"></path><path d="M0 177L130.7 192L117.7 111Z" fill="#b66e29" stroke="#b66e29"></path><path d="M0 71L0 177L117.7 111Z" fill="#ab6726" stroke="#ab6726"></path><path d="M0 309L0 377L78.7 351Z" fill="#a16023" stroke="#a16023"></path><path d="M144.7 0L0 71L117.7 111Z" fill="#b16a28" stroke="#b16a28"></path><path d="M0 377L0 481L91.7 480Z" fill="#d17f31" stroke="#d17f31"></path><path d="M144.7 0L0 0L0 71Z" fill="#bb712b" stroke="#bb712b"></path><path d="M0 481L0 540L91.7 480Z" fill="#a66325" stroke="#a66325"></path></g></svg>